Coordinates
version=1
nRows=7
nColumns=46
inDegrees=yes

Units are S.I. units (second, meters, Newtons, ...)
Angles are in degrees.

endheader
time	pelvis_tilt	pelvis_list	pelvis_rotation	pelvis_tx	pelvis_ty	pelvis_tz	bb_angle	bb_tx	bb_ty	bb_tz	hip_flexion_r	hip_adduction_r	hip_rotation_r	knee_angle_r	knee_angle_r_beta	ankle_angle_r	subtalar_angle_r	mtp_angle_r	crank_angle_r	hip_flexion_l	hip_adduction_l	hip_rotation_l	knee_angle_l	knee_angle_l_beta	ankle_angle_l	subtalar_angle_l	mtp_angle_l	crank_angle_l	lumbar_extension	lumbar_bending	lumbar_rotation	arm_flex_r	arm_add_r	arm_rot_r	elbow_flex_r	pro_sup_r	wrist_flex_r	wrist_dev_r	arm_flex_l	arm_add_l	arm_rot_l	elbow_flex_l	pro_sup_l	wrist_flex_l	wrist_dev_l
      7.50500000	    -34.68680677	      7.76822493	     -8.00886474	      0.31953650	      1.03391185	     -0.19680017	      0.00000000	      0.50000000	      0.00000000	      0.25000000	     75.26089535	     -4.11524556	      6.21256274	     67.17638385	      1.17244908	     12.04167343	     -0.50698089	      0.00000000	      0.00000000	     56.53599819	     -5.25731899	     -3.95109655	     71.88367431	      1.25460680	    -36.87685725	     -7.57072111	      0.00000000	      0.00000000	    -34.65301380	     -8.68032072	      2.93418432	     43.74128977	    -26.57048455	     38.15339551	     75.55144901	     53.21789674	      0.00000000	      0.00000000	     41.81670027	    -19.76706216	     28.14836883	     75.21156864	     50.23361413	      0.00000000	      0.00000000
      7.51000000	    -34.74328537	      7.44271540	     -7.17328541	      0.32006029	      1.03338058	     -0.19678268	      0.00000000	      0.50000000	      0.00000000	      0.25000000	     73.01430298	     -4.53406837	      5.74515131	     63.89333429	      1.11514905	     11.48918065	     -1.49546102	      0.00000000	      0.00000000	     58.21668919	     -4.98822402	     -2.98251649	     74.38205004	      1.29821168	    -37.57229881	     -7.72003986	      0.00000000	      0.00000000	    -34.47057988	     -8.05923662	      2.36186653	     43.28832279	    -25.99872397	     37.58476299	     75.31403856	     53.11288380	      0.00000000	      0.00000000	     41.95035138	    -20.25545557	     28.65960712	     74.95053431	     50.24507499	      0.00000000	      0.00000000
      7.51500000	    -34.80734197	      7.01309679	     -6.31840128	      0.32064180	      1.03270280	     -0.19657227	      0.00000000	      0.50000000	      0.00000000	      0.25000000	     70.71459351	     -4.85825984	      5.17605057	     60.59909044	      1.05765365	     10.79684176	     -2.78776754	      0.00000000	      0.00000000	     59.84173314	     -4.72072726	     -1.95700108	     76.77651017	      1.34000289	    -38.01971527	     -7.91740646	      0.00000000	      0.00000000	    -34.26451582	     -7.26593344	      1.78356648	     42.85801043	    -25.03870965	     36.67354962	     74.84490612	     52.93581892	      0.00000000	      0.00000000	     42.09617821	    -21.02266980	     29.46784291	     74.71786435	     50.29808698	      0.00000000	      0.00000000
      7.52000000	    -34.82720607	      6.73821977	     -5.50573420	      0.32130927	      1.03186625	     -0.19617342	      0.00000000	      0.50000000	      0.00000000	      0.25000000	     68.38320663	     -5.15401364	      4.80598405	     57.29492849	      0.99998515	      9.96432315	     -4.02060916	      0.00000000	      0.00000000	     61.39553623	     -4.32168679	     -1.02229401	     79.10058082	      1.38056558	    -38.32603071	     -8.00115634	      0.00000000	      0.00000000	    -33.99154738	     -6.77183965	      0.93173792	     42.10271965	    -22.81206775	     34.32471848	     73.28871169	     52.46340052	      0.00000000	      0.00000000	     42.44197253	    -22.71580902	     31.41620503	     74.80716221	     50.56273890	      0.00000000	      0.00000000
      7.52500000	    -34.74502014	      6.31394166	     -4.55422548	      0.32193081	      1.03088259	     -0.19636251	      0.00000000	      0.50000000	      0.00000000	      0.25000000	     66.01970158	     -5.58613209	      4.21586839	     54.21783315	      0.94627970	      9.29601144	     -4.55813118	      0.00000000	      0.00000000	     62.89902625	     -3.77210393	      0.07488659	     81.46282990	      1.42179460	    -38.53272249	     -8.31170258	      0.00000000	      0.00000000	    -33.89193300	     -5.94251653	      0.30626248	     41.72500193	    -22.39101261	     34.05702740	     73.24838888	     52.43309821	      0.00000000	      0.00000000	     42.46220129	    -23.18606451	     31.62356877	     74.63166058	     50.56007994	      0.00000000	      0.00000000
      7.53000000	    -34.75084058	      5.88116112	     -3.68541628	      0.32252261	      1.02954763	     -0.19655469	      0.00000000	      0.50000000	      0.00000000	      0.25000000	     63.87436382	     -5.92439765	      3.61890654	     51.35504779	      0.89631467	      8.38610742	     -5.12337640	      0.00000000	      0.00000000	     64.54418202	     -3.31867808	      1.07299543	     83.86810619	      1.46377459	    -38.62556625	     -8.59515011	      0.00000000	      0.00000000	    -33.65476167	     -5.15004337	     -0.33326545	     41.32436242	    -21.76748320	     33.65111947	     73.03564476	     52.35707157	      0.00000000	      0.00000000	     42.43322989	    -23.83670305	     32.00309364	     74.51596203	     50.58549689	      0.00000000	      0.00000000
      7.53500000	    -34.84640970	      5.28670017	     -2.82499057	      0.32278951	      1.02785021	     -0.19666045	      0.00000000	      0.50000000	      0.00000000	      0.25000000	     61.81126784	     -6.07382343	      2.85717264	     48.51889383	      0.84681445	      7.37036055	     -5.92955164	      0.00000000	      0.00000000	     66.31668843	     -2.88995391	      2.18710516	     86.30828069	      1.50636367	    -38.60584186	     -9.22076379	      0.00000000	      0.00000000	    -33.27606505	     -4.17500060	     -0.89403451	     40.94972596	    -20.89425017	     33.05767387	     72.63556830	     52.23391224	      0.00000000	      0.00000000	     42.37617666	    -24.66266922	     32.59307538	     74.49828014	     50.65345041	      0.00000000	      0.00000000
